<?xml version="1.0" encoding="UTF-8"?>
<svg id="_レイヤー_1" data-name="レイヤー_1" xmlns="http://www.w3.org/2000/svg" version="1.1" viewBox="0 0 152.3 51.4">
  <!-- Generator: Adobe Illustrator 29.2.1, SVG Export Plug-In . SVG Version: 2.1.0 Build 116)  -->
  <defs>
    <style>
      .st0, .st1 {
        fill: #35302a;
      }

      .st1 {
        fill-rule: evenodd;
      }
    </style>
  </defs>
  <g>
    <path class="st0" d="M67.2,11.3v3.2h-8.4v7.7h7.9v3.2h-7.9v9.9h-8.4V11.3h16.9Z"/>
    <path class="st0" d="M75.7,17.1v3.9c1.8-2.7,3.5-4.2,6-4.1,1.5.1,2.7.7,3.4,2.5.6,1.6.3,4.2-.2,5.9h-5.7c.2-.6.6-3.4-.3-4.1-.2-.2-.6-.2-1.2,0-2.1,1.2-2,7.1-2,8.6v5.4h-7v-17.4s3.9-.2,7-.8Z"/>
    <path class="st0" d="M93.7,27c0,1.2-.2,4.8,2.1,6,1.2.6,3.5.6,4.7-.2,1.5-1,1.8-2.6,1.7-4.2l2.1.6c.2,1.9,0,3.5-1.8,5-2.5,2-7.9,1.9-10.5,1.1-2.9-.9-4.7-2.5-5.6-5.5-.8-2.7-.5-6.8,1.7-9.6,2.3-2.8,5.8-3.5,8.3-3.4,2.3.1,5.1,1.1,6.7,4.1,1.1,1.9,1.2,4,1.2,6.1h-10.7ZM94.9,18.5c-1.4.9-1.3,3.1-1.3,5.3v1h4.4c0-4,0-5.7-1.4-6.4-.5-.2-1.2-.2-1.7.1Z"/>
    <path class="st0" d="M118.6,22.6c0-1,.2-2.2-.7-3.1-1.2-1.2-3.5-1.2-4.6-.9-.6.1-1.6.4-2.1,1.3-.2.4-.3,1,0,1.5.5,1.1,2.1,1.4,3.3,1.8l1.8.5c1.6.4,5,1.2,6.1,4.2.5,1.5.5,3.7-.6,5.3-1.7,2.5-5.1,2.8-7.1,2.9-1.7,0-6.4-.2-8.1-2.9-.7-1.1-.8-2.4-.5-3.9l3.4-.2c-.3,1.2-.5,2.6.4,3.7,1.1,1.2,3.7,1.6,4.8,1.5.9,0,2-.2,2.5-1.2.2-.4.3-1.1,0-1.6-.7-1.4-1.8-1.5-3.6-2l-1.6-.4c-1.8-.4-5-1.4-5.9-4.1-.5-1.5-.3-3.8.9-5.3,1.8-2.3,5.1-2.6,7.3-2.6,3.1,0,6.1,1,7,2.9.2.5.5,1.5.1,2.6l-2.9.3Z"/>
    <path class="st0" d="M132.1,10.9s0,9.1,0,9.1c1.6-2.2,2.7-2.7,4.5-2.9.8,0,3.9,0,5.4,1.7,1.4,1.5,1.3,2.7,1.3,4.6v11.8h-7v-10.9c0-1,0-3.3-.9-3.9-.4-.2-1-.2-1.6.2-1.9,1.2-1.7,4.5-1.7,5.8v8.8h-7V11.8s3.9-.2,7-.8Z"/>
  </g>
  <g>
    <path class="st0" d="M40.4,37.5s0,.1,0,.2c0,0,0,.1,0,.2h0c0,1.7-.6,3.3-1.6,4.4-1,1.2-2.4,2-4,2H9.5c-3,0-5.5-2.9-5.5-6.4h0c0,0,0-.2,0-.2,0-.1,0-.2,0-.2v-1h36.3v1h0ZM37.2,41c.5-.6.9-1.4,1-2.3H6.3c.3,2,1.6,3.5,3.3,3.5h0s25.4,0,25.4,0c.9,0,1.7-.4,2.3-1.2Z"/>
    <path class="st0" d="M9.5,33.4c.2.2.4.3.6.3s.5-.1.6-.3c0,0,.2-.2.2-.3.1-.3,0-.6.1-.9.1-.7.4-1.3.9-1.7.6-.6,1.3-.9,2.2-.9s1.6.3,2.2.9c.4.4.7,1,.9,1.6,0,.4,0,.9.3,1.3.2.2.4.3.6.3s.5-.1.6-.3c.3-.3.2-.7.3-1.1,0-.7.4-1.3.9-1.8.6-.6,1.3-.9,2.2-.9s1.6.3,2.2.9c.5.5.8,1.1.9,1.8,0,.4,0,.8.3,1.1.2.2.4.3.6.3s.6-.2.8-.4c.2-.3.1-.6.2-.9,0-.7.4-1.3.9-1.8.6-.6,1.3-.9,2.2-.9s1.6.3,2.2.9c.4.4.7,1,.8,1.6,0,.4,0,1,.3,1.3.2.2.4.3.6.3s.6-.2.8-.4c.2-.3.1-.6.1-.9,0-.7.4-1.3.9-1.8.6-.6,1.3-.9,2.2-.9,1.7,0,3.1,1.4,3.1,3.1s-.5,1.1-1.1,1.1-1.1-.5-1.1-1.1-.4-.9-.9-.9-.5.1-.6.3c-.3.3-.2.7-.3,1.1-.2,1.5-1.5,2.7-3.1,2.7s-1.6-.3-2.2-.9-.8-1-.9-1.7c0-.4,0-.8-.3-1.2-.2-.2-.4-.3-.6-.3s-.5.1-.6.3c-.3.3-.2.7-.3,1.1-.2,1.5-1.5,2.6-3.1,2.6s-1.6-.3-2.2-.9c-.4-.4-.7-.9-.8-1.5-.1-.5,0-1-.3-1.4s-.4-.3-.6-.3-.5.1-.6.3c-.3.3-.2.6-.3,1,0,.7-.4,1.4-.9,1.9-.6.6-1.3.9-2.2.9s-1.6-.3-2.2-.9c-.4-.4-.8-1-.9-1.7,0-.3,0-.7-.2-1,0,0,0-.1-.1-.2-.2-.2-.4-.3-.6-.3s-.5.1-.6.3c-.3.3-.2.7-.3,1.1,0,.7-.4,1.3-.9,1.8-.6.6-1.3.9-2.2.9s-1.6-.3-2.2-.9c-.4-.4-.7-1-.8-1.6,0-.2,0-.5-.1-.8,0-.2,0-.4-.2-.5-.2-.2-.4-.3-.6-.3s-.5.1-.6.3c-.2.2-.3.4-.3.6,0,.6-.5,1.1-1.1,1.1s-1.1-.5-1.1-1.1c0-.9.3-1.6.9-2.2.6-.6,1.3-.9,2.2-.9s1.6.3,2.2.9c.4.4.7,1,.8,1.6,0,.4,0,1,.4,1.3Z"/>
    <path class="st1" d="M6.6,23.2h31.2c1.5,0,2.8,1.3,2.8,2.8h0c0,1.5-1.3,2.8-2.8,2.8H6.6c-1.5,0-2.8-1.3-2.8-2.8h0c0-1.5,1.3-2.8,2.8-2.8Z"/>
    <path class="st0" d="M39.3,22H4v-1.1c0-6.6,4.8-10.9,10.9-12.7,2.3-.7,4.8-1,7.3-1s5,.3,7.3,1c6.1,1.8,10.9,6.1,10.9,12.7v1.1h-1.1ZM6.3,19.8h31.9c-.5-4.9-4.4-8.1-9.3-9.5-2.1-.6-4.4-.9-6.7-.9s-4.6.3-6.7.9c-4.9,1.5-8.8,4.6-9.3,9.5Z"/>
    <path class="st1" d="M11.5,17c.8,0,1.5-.4,1.5-.9s-.7-.9-1.5-.9-1.5.4-1.5.9.7.9,1.5.9Z"/>
    <path class="st1" d="M23,12.7c.8,0,1.5-.4,1.5-.9s-.7-.9-1.5-.9-1.5.4-1.5.9.7.9,1.5.9Z"/>
    <path class="st1" d="M14.1,14.6c.8,0,1.5-.4,1.5-.9s-.7-.9-1.5-.9-1.5.4-1.5.9.7.9,1.5.9Z"/>
    <path class="st1" d="M16.8,16.7c.8,0,1.5-.4,1.5-.9s-.7-.9-1.5-.9-1.5.4-1.5.9.7.9,1.5.9Z"/>
    <path class="st1" d="M18.1,13.1c.8,0,1.5-.4,1.5-.9s-.7-.9-1.5-.9-1.5.4-1.5.9.7.9,1.5.9Z"/>
    <path class="st1" d="M20.6,15.3c.8,0,1.5-.4,1.5-.9s-.7-.9-1.5-.9-1.5.4-1.5.9.7.9,1.5.9Z"/>
  </g>
  <g>
    <rect class="st0" x="44.4" y="39.3" width="104.9" height="1.7"/>
    <rect class="st0" x="44.4" y="42.6" width="104.9" height="1.7"/>
  </g>
</svg>